<?xml version="1.0" encoding="UTF-8"?>
<svg version="1.1" xmlns="http://www.w3.org/2000/svg" width="792" height="167">
<path d="M0 0 C7.59 0 15.18 0 23 0 C25.38708329 8.83220816 27.09369721 17.68196457 28.64160156 26.69580078 C28.80370117 27.62505371 28.96580078 28.55430664 29.1328125 29.51171875 C29.27605957 30.35178467 29.41930664 31.19185059 29.56689453 32.05737305 C29.81672853 33.99549242 29.81672853 33.99549242 31 35 C31.2673999 34.01080566 31.5347998 33.02161133 31.81030273 32.00244141 C32.80148911 28.33795968 33.79546103 24.6742384 34.7902832 21.01074219 C35.22073358 19.42403488 35.65042483 17.83712144 36.0793457 16.25 C36.69543939 13.97080947 37.31424531 11.69237042 37.93359375 9.4140625 C38.12529648 8.70255035 38.31699921 7.99103821 38.51451111 7.25796509 C39.88612829 2.22774341 39.88612829 2.22774341 41 0 C48.59 0 56.18 0 64 0 C65.10540044 3.77047548 66.20934907 7.54136633 67.3125 11.3125 C67.7755957 12.8912793 67.7755957 12.8912793 68.24804688 14.50195312 C70.23965871 21.31536205 72.15827466 28.14454672 74 35 C75.4610111 30.88052923 76.49154125 26.880019 77.25390625 22.578125 C77.46853516 21.38832031 77.68316406 20.19851562 77.90429688 18.97265625 C78.12150391 17.74417969 78.33871094 16.51570313 78.5625 15.25 C78.99855687 12.79638554 79.43722332 10.34323294 79.87890625 7.890625 C80.0704126 6.80813477 80.26191895 5.72564453 80.45922852 4.61035156 C81 2 81 2 82 0 C89.59 0 97.18 0 105 0 C102.93508597 9.63198598 100.86703569 19.26328364 98.79338932 28.89339352 C97.83073478 33.36462247 96.86948141 37.83614326 95.91137695 42.30834961 C94.9874398 46.62082353 94.05989181 50.932506 93.12978935 55.24365425 C92.77482675 56.89207613 92.42118656 58.54078332 92.06886482 60.18977165 C91.57678836 62.49177616 91.08010319 64.79273936 90.58227539 67.09350586 C90.43625885 67.78186523 90.29024231 68.47022461 90.13980103 69.17944336 C89.11405216 73.88594784 89.11405216 73.88594784 88 75 C86.29227642 75.08713831 84.58101351 75.10700007 82.87109375 75.09765625 C81.31938477 75.09282227 81.31938477 75.09282227 79.73632812 75.08789062 C78.64771484 75.07951172 77.55910156 75.07113281 76.4375 75.0625 C74.7987793 75.05573242 74.7987793 75.05573242 73.12695312 75.04882812 C70.41791505 75.03699826 67.70898401 75.02051543 65 75 C60.8959131 61.02795904 56.84814884 47.04485661 53 33 C50.80700775 36.82377532 49.7920554 40.97278526 48.65234375 45.1953125 C48.43558487 45.98396698 48.21882599 46.77262146 47.99549866 47.58517456 C47.30555901 50.09739008 46.62117107 52.61107198 45.9375 55.125 C45.24953418 57.64586043 44.56036773 60.16637687 43.86878967 62.68624878 C43.43913518 64.25262247 43.01168806 65.81960362 42.58665466 67.38723755 C41.11173191 72.77653617 41.11173191 72.77653617 40 75 C32.41 75 24.82 75 17 75 C13.18503139 60.26893309 9.9504913 45.41443239 6.69903564 30.5512085 C5.9429895 27.09756669 5.18425895 23.6445147 4.42578125 20.19140625 C2.9479528 13.46149897 1.47326165 6.73090847 0 0 Z " fill="#FFFFFF" transform="translate(531,48)"/>
<path d="M0 0 C11.1065625 -0.12375 11.1065625 -0.12375 22.4375 -0.25 C24.7570874 -0.28641602 27.0766748 -0.32283203 29.46655273 -0.36035156 C31.33055703 -0.37204752 33.19457164 -0.38223719 35.05859375 -0.390625 C36.00577271 -0.41108887 36.95295166 -0.43155273 37.92883301 -0.45263672 C47.35964925 -0.45752379 54.40766495 2.66695333 61.27734375 9.0859375 C68.38920854 16.98800948 69.38108388 27.73613751 69.3125 37.9375 C69.30686035 38.81631836 69.3012207 39.69513672 69.29541016 40.60058594 C69.10476876 50.7668688 67.14655949 58.48240017 60 66 C44.496865 80.4439146 18.60318407 75 0 75 C0 50.25 0 25.5 0 0 Z M24 18 C24 30.87 24 43.74 24 57 C36.10557281 57.04349839 36.10557281 57.04349839 42 53 C45.45376508 47.99279473 45.45704014 43.36131225 45.375 37.5 C45.38660156 36.67113281 45.39820313 35.84226562 45.41015625 34.98828125 C45.38203453 29.09209499 44.36178199 24.8538199 40.5 20.1875 C35.63624992 16.33703119 30.31405403 18 24 18 Z " fill="#FFFFFF" transform="translate(212,48)"/>
<path d="M0 0 C8.11227342 6.87521119 14.26573378 14.28532551 16 25 C16.61333097 34.04663187 14.61659533 42.04365823 8.77734375 49.125 C-0.99133011 59.43041418 -12.44197816 63.40778696 -26.3828125 63.89331055 C-28.58856326 63.94359147 -30.79386852 63.9724616 -33 64 C-34.22460938 64.03867188 -35.44921875 64.07734375 -36.7109375 64.1171875 C-44.56740914 64.2883939 -44.56740914 64.2883939 -48 62 C-48.36076355 59.177948 -48.36076355 59.177948 -48.34057617 55.53076172 C-48.34101425 54.86722687 -48.34145233 54.20369202 -48.34190369 53.52005005 C-48.33981068 51.322965 -48.31645699 49.12663951 -48.29296875 46.9296875 C-48.28737458 45.4079734 -48.28310364 43.8862539 -48.28010559 42.36453247 C-48.26864261 38.35635501 -48.2391633 34.34850288 -48.20599365 30.3404541 C-48.17532384 26.25175376 -48.16160689 22.16300093 -48.14648438 18.07421875 C-48.11429467 10.04932975 -48.06308116 2.02470532 -48 -6 C-31.65741811 -13.13554398 -14.33095072 -10.80618614 0 0 Z M-9 8 C-8.67 8.66 -8.34 9.32 -8 10 C-6.68 9.34 -5.36 8.68 -4 8 C-5.65 8 -7.3 8 -9 8 Z M-25 25 C-24 27 -24 27 -24 27 Z M-37 32 C-37 33.65 -37 35.3 -37 37 C-36.67 37 -36.34 37 -36 37 C-36 35.35 -36 33.7 -36 32 C-36.33 32 -36.66 32 -37 32 Z M-36 37 C-35 40 -35 40 -35 40 Z M-35 40 C-34.34 41.32 -33.68 42.64 -33 44 C-32.34 43.67 -31.68 43.34 -31 43 C-32.32 42.01 -33.64 41.02 -35 40 Z M-16 47 C-15 49 -15 49 -15 49 Z " fill="#2490FE" transform="translate(138,57)"/>
<path d="M0 0 C6.93 0 13.86 0 21 0 C21.49371094 1.93746094 21.98742187 3.87492187 22.49609375 5.87109375 C22.97574305 7.74103089 23.45541648 9.61096193 23.93579102 11.48071289 C24.26972267 12.78312758 24.60240932 14.08586212 24.93383789 15.38891602 C25.40966781 17.25880667 25.8903076 19.1274713 26.37109375 20.99609375 C26.65911865 22.12200928 26.94714355 23.2479248 27.24389648 24.40795898 C27.74779789 26.90806591 27.74779789 26.90806591 29 28 C29.2673999 27.18732666 29.5347998 26.37465332 29.81030273 25.53735352 C30.80123307 22.53053361 31.79483725 19.52461479 32.7902832 16.51928711 C33.22105089 15.21690951 33.65074225 13.91417542 34.0793457 12.61108398 C34.69461363 10.74109627 35.31404059 8.87247858 35.93359375 7.00390625 C36.30540771 5.87799072 36.67722168 4.7520752 37.06030273 3.59204102 C38 1 38 1 39 0 C40.4887186 -0.08669432 41.981445 -0.10703494 43.47265625 -0.09765625 C44.37177734 -0.09443359 45.27089844 -0.09121094 46.19726562 -0.08789062 C47.61555664 -0.07532227 47.61555664 -0.07532227 49.0625 -0.0625 C50.01189453 -0.05798828 50.96128906 -0.05347656 51.93945312 -0.04882812 C54.29303065 -0.0370011 56.64648477 -0.02052025 59 0 C60.28751357 3.78834888 61.56909069 7.57864846 62.84521484 11.37084961 C63.28011228 12.66046159 63.71662422 13.94953029 64.15478516 15.23803711 C64.78452574 17.0908453 65.40797257 18.94578889 66.03125 20.80078125 C66.40830078 21.91622314 66.78535156 23.03166504 67.17382812 24.1809082 C68 27 68 27 68 30 C68.66 30 69.32 30 70 30 C70.17015625 28.34097656 70.17015625 28.34097656 70.34375 26.6484375 C70.98398653 21.53330834 72.21853484 16.61173015 73.5 11.625 C73.72558594 10.72394531 73.95117188 9.82289062 74.18359375 8.89453125 C75.8590663 2.2818674 75.8590663 2.2818674 77 0 C83.93 0 90.86 0 98 0 C94.62425481 11.25248396 94.62425481 11.25248396 93.20654297 15.06665039 C92.88966522 15.92355972 92.57278748 16.78046906 92.24630737 17.66334534 C91.91494781 18.54916794 91.58358826 19.43499054 91.2421875 20.34765625 C90.7194072 21.75451942 90.7194072 21.75451942 90.18606567 23.18980408 C89.45647798 25.15079219 88.72533083 27.11120076 87.99267578 29.07104492 C86.86692215 32.08412034 85.74760625 35.09953392 84.62890625 38.11523438 C83.91704597 40.026183 83.2048198 41.93699539 82.4921875 43.84765625 C82.15677948 44.75169693 81.82137146 45.65573761 81.47579956 46.58717346 C81.00993942 47.82998329 81.00993942 47.82998329 80.53466797 49.09790039 C80.12521439 50.19516197 80.12521439 50.19516197 79.70748901 51.31459045 C79 53 79 53 78 54 C76.58429877 54.08651611 75.164405 54.10704904 73.74609375 54.09765625 C72.9770874 54.09515869 72.20808105 54.09266113 71.41577148 54.09008789 C70.43294189 54.08098389 69.4501123 54.07187988 68.4375 54.0625 C65.323125 54.041875 62.20875 54.02125 59 54 C55.7 44.43 52.4 34.86 49 25 C45.7 34.57 42.4 44.14 39 54 C32.4 54 25.8 54 19 54 C16.4501042 47.11493898 13.90506516 40.2281098 11.36450195 33.33959961 C10.49962343 30.99665941 9.63342186 28.65420716 8.76586914 26.31225586 C7.5188098 22.94512425 6.27652532 19.57626419 5.03515625 16.20703125 C4.45230614 14.63801811 4.45230614 14.63801811 3.85768127 13.03730774 C3.49738327 12.05666855 3.13708527 11.07602936 2.76586914 10.06567383 C2.44832169 9.20629715 2.13077423 8.34692047 1.80360413 7.46150208 C1 5 1 5 0 0 Z " fill="#FFFFFF" transform="translate(400,69)"/>
<path d="M0 0 C6.81686608 4.03926211 13.91643454 9.93649083 16.72265625 17.61328125 C16.703125 19.6796875 16.703125 19.6796875 15.72265625 21.61328125 C13.140625 23.0625 13.140625 23.0625 9.91015625 24.30078125 C8.85183594 24.71714844 7.79351562 25.13351563 6.703125 25.5625 C4.37577333 26.3830211 2.12827694 27.08322923 -0.27734375 27.61328125 C-0.83421875 26.68515625 -1.39109375 25.75703125 -1.96484375 24.80078125 C-4.39565493 21.45020368 -5.44702148 20.08021318 -9.27734375 18.61328125 C-14.62222479 17.95130057 -18.88082714 17.93996074 -23.77734375 20.30078125 C-27.1100788 23.38356117 -29.03105425 25.96469476 -29.7109375 30.515625 C-29.72059466 38.01923596 -28.78810444 41.84246422 -23.58984375 47.42578125 C-19.25557154 49.6514886 -14.74941425 50.29759142 -10.01953125 48.98828125 C-6.16376171 47.28092942 -4.53370091 46.02986163 -2.27734375 42.36328125 C-1.94734375 41.45578125 -1.61734375 40.54828125 -1.27734375 39.61328125 C5.33508347 41.43549501 11.52786296 43.66551729 17.72265625 46.61328125 C15.51689136 56.22108407 9.83745599 63.60820024 1.60546875 69 C-7.40891589 73.71764488 -16.53248617 75.05050234 -26.40234375 72.48828125 C-36.0368582 69.23663262 -43.89609121 61.58905926 -48.85546875 52.82421875 C-53.57505776 42.5441944 -54.53498148 32.34769295 -51.34765625 21.46484375 C-47.36056258 10.84229491 -40.93644139 3.58763622 -30.71484375 -1.32421875 C-20.41153756 -5.23505754 -9.91750413 -4.73851139 0 0 Z " fill="#238FFE" transform="translate(68.27734375,51.38671875)"/>
<path d="M0 0 C1.19367187 -0.01611328 2.38734375 -0.03222656 3.6171875 -0.04882812 C17.83840014 -0.05669384 17.83840014 -0.05669384 23.13769531 4.65844727 C27.91816121 10.02404904 28.91583764 15.01411794 28.96875 21.9921875 C28.9833728 22.72317657 28.99799561 23.45416565 29.01306152 24.20730591 C29.05934749 26.5339822 29.09365286 28.86057748 29.125 31.1875 C29.1664143 34.24769841 29.2201999 37.30732472 29.28125 40.3671875 C29.2865271 41.05908173 29.2918042 41.75097595 29.29724121 42.46383667 C29.3947728 47.29187023 30.23569593 50.44993574 31.625 55.3125 C24.695 55.3125 17.765 55.3125 10.625 55.3125 C9.965 53.6625 9.305 52.0125 8.625 50.3125 C8.12355469 50.6734375 7.62210938 51.034375 7.10546875 51.40625 C1.14563326 55.06134502 -4.15161773 55.85778268 -11 55.9375 C-12.19846558 55.97133789 -12.19846558 55.97133789 -13.42114258 56.00585938 C-19.47642142 55.93094099 -23.71944709 54.20971413 -28.375 50.3125 C-31.38807266 45.98120806 -31.93424465 42.53211673 -31.375 37.3125 C-29.60695329 32.56669042 -27.52719417 30.1486982 -23.375 27.3125 C-20.81544548 26.47987383 -18.42549286 25.81365409 -15.8125 25.25 C-14.39056839 24.92081735 -12.96869393 24.59138773 -11.546875 24.26171875 C-10.84498047 24.10364746 -10.14308594 23.94557617 -9.41992188 23.78271484 C-6.45247338 23.10037174 -3.50942539 22.32798184 -0.5625 21.5625 C2.35604236 20.80569178 4.6010214 20.3125 7.625 20.3125 C6.965 18.9925 6.305 17.6725 5.625 16.3125 C4.08589264 16.17562286 2.54312705 16.07965995 1 16 C0.14148438 15.94199219 -0.71703125 15.88398437 -1.6015625 15.82421875 C-4.64669307 16.09854533 -4.64669307 16.09854533 -7.09375 18.875 C-9.0379385 20.64144667 -9.9863195 21.27391805 -12.63037109 21.53637695 C-15.20364169 21.35726358 -17.70321999 21.03348203 -20.25 20.625 C-21.12914062 20.50705078 -22.00828125 20.38910156 -22.9140625 20.26757812 C-25.07129092 19.97447644 -27.22378594 19.64689664 -29.375 19.3125 C-28.57816922 12.57927988 -26.97808033 8.77857611 -22 4.0625 C-15.13214418 -0.51607055 -7.948679 -0.02132156 0 0 Z M-0.875 33.1875 C-2.0403125 33.53554687 -3.205625 33.88359375 -4.40625 34.2421875 C-7.44655008 35.10046643 -7.44655008 35.10046643 -9.375 37.3125 C-9.08516731 40.61933466 -9.08516731 40.61933466 -7.375 43.3125 C-1.28490123 43.82861006 1.7457178 43.35873402 6.625 39.3125 C7.97939668 36.60370665 7.69001451 34.30316732 7.625 31.3125 C4.61253633 31.3125 2.00087347 32.31583039 -0.875 33.1875 Z " fill="#FFFFFF" transform="translate(667.375,67.6875)"/>
<path d="M0 0 C7.87778481 5.38922904 11.0773196 11.00769174 12.94140625 20.328125 C12.94140625 23.958125 12.94140625 27.588125 12.94140625 31.328125 C-0.25859375 31.658125 -13.45859375 31.988125 -27.05859375 32.328125 C-24.73607949 37.21308025 -24.73607949 37.21308025 -22.05859375 38.328125 C-16.72425019 38.95938239 -16.72425019 38.95938239 -12.15234375 36.828125 C-9.42207247 34.87210975 -7.76170258 34.9903121 -4.43359375 35.078125 C-3.38429688 35.10390625 -2.335 35.1296875 -1.25390625 35.15625 C3.16483318 35.39393281 7.55016995 35.78407802 11.94140625 36.328125 C9.66684983 42.9622479 6.01602613 46.87392938 -0.05859375 50.328125 C-6.17766166 52.55978506 -11.95919625 52.69476015 -18.43359375 52.703125 C-19.42359375 52.72761719 -20.41359375 52.75210938 -21.43359375 52.77734375 C-29.48519407 52.80921024 -35.65664363 51.20088288 -41.87109375 45.953125 C-48.07256556 38.51135883 -50.59339473 31.92136701 -50.3671875 22.234375 C-49.55809319 14.61455015 -46.92147703 7.84679051 -41.05859375 2.765625 C-30.4840589 -4.83482192 -11.73169627 -5.96028934 0 0 Z M-25.55859375 14.078125 C-27.33046567 16.46265956 -27.33046567 16.46265956 -28.05859375 20.328125 C-21.78859375 20.328125 -15.51859375 20.328125 -9.05859375 20.328125 C-10.37156497 14.34274263 -10.37156497 14.34274263 -14.05859375 12.328125 C-18.37550055 11.644416 -21.92623853 11.53547635 -25.55859375 14.078125 Z " fill="#FFFFFF" transform="translate(385.05859375,70.671875)"/>
<path d="M0 0 C1.94326172 -0.05607422 1.94326172 -0.05607422 3.92578125 -0.11328125 C8.24585939 0.37569956 10.30533261 1.65400587 13.6875 4.3125 C14.55375 4.993125 14.55375 4.993125 15.4375 5.6875 C19.36756058 10.79657875 18.95380782 16.98040929 18.8828125 23.0859375 C18.8799826 24.0096817 18.87715271 24.9334259 18.87423706 25.88516235 C18.86309179 28.81940976 18.83799765 31.7533457 18.8125 34.6875 C18.80246289 36.68358932 18.79333832 38.67968346 18.78515625 40.67578125 C18.76487728 45.55490243 18.72571785 50.43335483 18.6875 55.3125 C11.7575 55.3125 4.8275 55.3125 -2.3125 55.3125 C-2.37308594 53.06050781 -2.43367187 50.80851562 -2.49609375 48.48828125 C-2.55797541 46.29725088 -2.62132476 44.1062675 -2.68481445 41.9152832 C-2.72801548 40.39742245 -2.76970048 38.87951774 -2.80981445 37.36157227 C-2.86787812 35.17450741 -2.93146656 32.98766082 -2.99609375 30.80078125 C-3.05108032 28.82911987 -3.05108032 28.82911987 -3.10717773 26.81762695 C-3.28010636 23.86550302 -3.63410714 21.18299504 -4.3125 18.3125 C-9.57577456 17.80851593 -9.57577456 17.80851593 -14.25 19.625 C-16.63147615 23.40734447 -16.50449769 27.03241932 -16.62890625 31.38671875 C-16.64968735 32.0705513 -16.67046844 32.75438385 -16.69187927 33.4589386 C-16.75716154 35.6391921 -16.81616017 37.81956405 -16.875 40 C-16.91820553 41.47982986 -16.96182047 42.95964783 -17.00585938 44.43945312 C-17.11359025 48.06368254 -17.21282107 51.68800438 -17.3125 55.3125 C-24.2425 55.3125 -31.1725 55.3125 -38.3125 55.3125 C-38.3125 37.4925 -38.3125 19.6725 -38.3125 1.3125 C-31.7125 1.3125 -25.1125 1.3125 -18.3125 1.3125 C-17.9825 2.9625 -17.6525 4.6125 -17.3125 6.3125 C-16.84199219 5.96316406 -16.37148438 5.61382812 -15.88671875 5.25390625 C-15.26410156 4.79886719 -14.64148438 4.34382813 -14 3.875 C-13.38511719 3.42253906 -12.77023437 2.97007813 -12.13671875 2.50390625 C-8.25009366 -0.03446774 -4.5249378 0.0850384 0 0 Z " fill="#FFFFFF" transform="translate(745.3125,67.6875)"/>
<path d="M0 0 C2.3671875 1.02734375 2.3671875 1.02734375 4 2 C2.25192871 7.46737191 0.34205919 12.75824848 -2 18 C-3.03060547 17.93039063 -3.03060547 17.93039063 -4.08203125 17.859375 C-4.98308594 17.82328125 -5.88414062 17.7871875 -6.8125 17.75 C-8.15248047 17.68039063 -8.15248047 17.68039063 -9.51953125 17.609375 C-12.1030376 17.77156234 -12.1030376 17.77156234 -13.75390625 19.70703125 C-19.02894573 29.41376534 -17.59063453 44.35649766 -18 55 C-24.93 55 -31.86 55 -39 55 C-39 37.18 -39 19.36 -39 1 C-32.4 1 -25.8 1 -19 1 C-18.67 2.32 -18.34 3.64 -18 5 C-17.2575 4.175 -16.515 3.35 -15.75 2.5 C-11.22939124 -1.31764328 -5.59691844 -0.74053935 0 0 Z " fill="#FFFFFF" transform="translate(330,68)"/>
<path d="M0 0 C-4.57004856 16.90917966 -17.74307382 31.42261511 -32.5625 40.1875 C-50.47770733 50.0822622 -71.21429176 52.44620301 -91.25463867 47.65795898 C-108.17238234 42.76267167 -121.63843483 31.97017544 -132 18 C-132.70844603 16.68838785 -133.395455 15.36262525 -134 14 C-126.50736513 15.38162061 -123.11064697 18.72215006 -118.30078125 24.4375 C-108.79248307 35.02738727 -92.74908854 42.18419224 -78.63720703 43.1640625 C-59.29170989 44.03531777 -41.02352267 40.99179065 -25.96533203 27.96606445 C-19.40997362 21.94389196 -13.94972681 15.31673671 -9.375 7.6875 C-7.21310675 4.11288443 -4.55362175 0 0 0 Z " fill="#FFFFFF" transform="translate(154,111)"/>
<path d="M0 0 C9.46272716 7.21415833 19.97693452 18.63022741 24.13671875 30.04296875 C23.80671875 30.70296875 23.47671875 31.36296875 23.13671875 32.04296875 C16.50006068 28.66642342 13.74297967 25.22537986 9.96875 18.88671875 C1.33103092 5.47891601 -14.30463231 -3.0386918 -29.48828125 -6.76953125 C-48.79729368 -10.43740042 -67.06584176 -7.22436567 -83.86328125 3.04296875 C-88.76568345 6.5978201 -93.26115468 10.41481058 -97.5078125 14.73046875 C-99.93493571 17.11331608 -101.59273416 18.18229846 -104.86328125 19.04296875 C-105.85328125 18.71296875 -106.84328125 18.38296875 -107.86328125 18.04296875 C-78.71284698 -14.21875982 -38.57031676 -26.36252209 0 0 Z " fill="#FFFFFF" transform="translate(128.86328125,25.95703125)"/>
<path d="M0 0 C0 6.3924953 -6.89728259 12.06188119 -11.0625 16.5625 C-21.30567642 26.52695054 -35.7369932 33.09441227 -50 34 C-50.7940625 34.0515625 -51.588125 34.103125 -52.40625 34.15625 C-68.87479003 34.73749259 -84.87190611 29.6366655 -97.23754883 18.65625 C-99.55371337 16.49626769 -101.79027101 14.26836193 -104 12 C-104.60199219 11.43925781 -105.20398438 10.87851563 -105.82421875 10.30078125 C-107 9 -107 9 -107 7 C-101.85411127 7 -99.56156842 8.08117255 -95.8125 11.625 C-83.67312023 23.06718566 -69.35399988 27.64723329 -52.90161133 27.40039062 C-34.36650838 26.72645496 -20.85947408 18.30763199 -8.25 5.125 C-5.70959454 2.72572818 -3.18224257 1.40610718 0 0 Z " fill="#FFFFFF" transform="translate(139,117)"/>
<path d="M0 0 C1 3 1 3 0.21484375 5.19921875 C-1.88972941 9.298953 -3.96091206 13.10576388 -6.875 16.6875 C-15.42306017 27.59897733 -20.22581092 42.2757391 -21 56 C-21.05285156 56.80566406 -21.10570312 57.61132812 -21.16015625 58.44140625 C-21.73995697 75.35646217 -16.69347371 92.7402515 -6.3203125 106.14453125 C-5 108 -5 108 -5 110 C-4.34 110 -3.68 110 -3 110 C-3 110.66 -3 111.32 -3 112 C-6.21484375 112.375 -6.21484375 112.375 -10 112 C-12.01230101 109.93940377 -13.16772804 108.43542411 -14.5625 106 C-14.93963135 105.37569092 -15.3167627 104.75138184 -15.70532227 104.1081543 C-26.92568473 84.8100868 -30.44155036 61.88701865 -24.97265625 40.1640625 C-20.04478258 24.13363008 -11.72545156 11.72545156 0 0 Z " fill="#FFFFFF" transform="translate(29,25)"/>
<path d="M0 0 C1.73298181 1.55818537 3.44970885 3.13476735 5.14453125 4.734375 C7.31559629 6.82664586 7.31559629 6.82664586 10.2734375 8.6875 C10.2734375 9.3475 10.2734375 10.0075 10.2734375 10.6875 C3.8968297 9.43520908 -0.99905571 7.07090238 -6.2265625 3.25 C-11.48917483 -0.58070832 -16.48925094 -3.39577098 -22.7265625 -5.3125 C-23.72623047 -5.64701172 -23.72623047 -5.64701172 -24.74609375 -5.98828125 C-40.10332316 -10.30474917 -56.30545681 -7.07329093 -70.1171875 0.13671875 C-72.29076093 1.42849817 -74.01340728 2.66592872 -75.8515625 4.375 C-79.77659215 7.53208907 -83.88930152 8.51164407 -88.7265625 9.6875 C-84.78348321 0.44590791 -73.87682994 -5.52608971 -65.10546875 -9.5 C-43.34445456 -18.09070517 -18.08048138 -15.33473493 0 0 Z " fill="#FFFFFF" transform="translate(123.7265625,36.3125)"/>
<path d="M0 0 C3.5447462 0.19693034 6.03208134 1.03519183 9 3 C21.0275811 20.19125466 23.35590339 42.01880588 20.68652344 62.39257812 C19.89850079 66.77406467 18.60554175 70.85650561 17 75 C16.34644531 76.71509766 16.34644531 76.71509766 15.6796875 78.46484375 C12.3458151 86.12546311 12.3458151 86.12546311 8.8359375 88.40625 C6.625 89.25 6.625 89.25 3 90 C3.26941406 89.46503906 3.53882813 88.93007812 3.81640625 88.37890625 C14.19216528 67.5246579 18.72670027 46.84717847 12 24 C10.97148628 21.1016443 9.83399332 18.26501069 8.625 15.4375 C8.34519287 14.78257568 8.06538574 14.12765137 7.77709961 13.45288086 C6.27084964 10.14680065 4.6456191 7.42268627 2.2734375 4.66015625 C0 2 0 2 0 0 Z " fill="#FFFFFF" transform="translate(144,39)"/>
<path d="M0 0 C0 0.66 0 1.32 0 2 C-2 3.625 -2 3.625 -4 5 C-4.66 4.67 -5.32 4.34 -6 4 C-2.25 0 -2.25 0 0 0 Z " fill="#FFFFFF" transform="translate(20,58)"/>
<path d="M0 0 C0.99 0 1.98 0 3 0 C3 0.66 3 1.32 3 2 C2.01 2 1.02 2 0 2 C0 1.34 0 0.68 0 0 Z " fill="#3D84D2" transform="translate(41,87)"/>
</svg>
